<?xml version="1.0" encoding="utf-8"?>
<!-- Generator: Adobe Illustrator 19.2.0, SVG Export Plug-In . SVG Version: 6.00 Build 0)  -->
<svg version="1.1" id="Layer_1" xmlns="http://www.w3.org/2000/svg" xmlns:xlink="http://www.w3.org/1999/xlink" x="0px" y="0px"
	 viewBox="0 0 182.5 438" style="enable-background:new 0 0 182.5 438;" xml:space="preserve">
<style type="text/css">
	.st0{fill:#FA8072;}
</style>
<path class="st0" d="M173.4,191.6h-73V9.1L9.1,246.4h73v182.5L173.4,191.6z"/>
<path class="st0" d="M82.1,438c-0.5,0-1.1,0-1.7-0.1c-4.3-0.8-7.5-4.6-7.5-9V255.5H9.1c-3,0-5.8-1.5-7.5-4c-1.7-2.5-2.1-5.6-1-8.4
	L91.9,5.9c1.6-4.1,5.8-6.5,10.2-5.7c4.3,0.8,7.5,4.6,7.5,9v173.4h63.9c3,0,5.8,1.5,7.5,4c1.7,2.5,2.1,5.6,1,8.4L90.6,432.2
	C89.3,435.7,85.8,438,82.1,438z M22.4,237.3h59.7c5,0,9.1,4.1,9.1,9.1v133.4l68.8-179h-59.7c-5,0-9.1-4.1-9.1-9.1V58.3L22.4,237.3z"
	/>
</svg>
